Coordinates
version=1
nRows=11
nColumns=63
inDegrees=yes

Units are S.I. units (second, meters, Newtons, ...)
If the header above contains a line with 'inDegrees', this indicates whether rotational values are in degrees (yes) or radians (no).

endheader
time	pelvis_tilt	pelvis_list	pelvis_rotation	pelvis_tx	pelvis_ty	pelvis_tz	hip_flexion_r	hip_adduction_r	hip_rotation_r	knee_angle_r	knee_angle_r_beta	ankle_angle_r	subtalar_angle_r	mtp_angle_r	hip_flexion_l	hip_adduction_l	hip_rotation_l	knee_angle_l	knee_angle_l_beta	ankle_angle_l	subtalar_angle_l	mtp_angle_l	L5_S1_Flex_Ext	L5_S1_Lat_Bending	L5_S1_axial_rotation	L4_L5_Flex_Ext	L4_L5_Lat_Bending	L4_L5_axial_rotation	L3_L4_Flex_Ext	L3_L4_Lat_Bending	L3_L4_axial_rotation	L2_L3_Flex_Ext	L2_L3_Lat_Bending	L2_L3_axial_rotation	L1_L2_Flex_Ext	L1_L2_Lat_Bending	L1_L2_axial_rotation	L1_T12_Flex_Ext	L1_T12_Lat_Bending	L1_T12_axial_rotation	Abs_r3	Abs_r2	Abs_r1	Abs_t1	Abs_t2	neck_flexion	neck_bending	neck_rotation	arm_flex_r	arm_add_r	arm_rot_r	elbow_flex_r	pro_sup_r	wrist_flex_r	wrist_dev_r	arm_flex_l	arm_add_l	arm_rot_l	elbow_flex_l	pro_sup_l	wrist_flex_l	wrist_dev_l
1.666667	5.887782	0.401000	92.786474	0.193024	1.028852	0.412049	0.767624	6.597505	-8.707333	18.325415	0.319839	26.102993	-5.695028	0.000000	6.438857	-6.058283	6.413487	24.130032	0.421149	34.883602	-6.642671	0.000000	-0.435771	1.024910	1.374295	-0.809271	1.363130	1.460188	-0.715928	2.491966	1.460188	-0.498043	2.491966	1.202508	-0.404657	2.089996	1.116615	-0.249000	1.587586	1.030721	-3.112670	11.593987	7.643416	0.000000	0.000000	19.442074	-25.515277	18.966111	12.693729	-14.368663	110.336851	14.854533	13.615499	-0.743226	-6.152060	56.882055	-0.839681	4.723543	135.382643	86.916428	-13.275255	7.247258
1.683333	5.767508	0.653078	92.450939	0.194134	1.028916	0.411253	0.531550	6.517261	-8.451365	18.520690	0.323247	26.188298	-5.779019	0.000000	6.004774	-5.988809	6.143230	24.032129	0.419440	35.025596	-6.668509	0.000000	-0.429359	0.967042	1.482789	-0.797362	1.286166	1.575463	-0.705393	2.351266	1.575463	-0.490714	2.351266	1.297440	-0.398702	1.971992	1.204766	-0.245335	1.497948	1.112092	-3.066865	10.939371	8.246828	0.000000	0.000000	18.965055	-24.865724	19.358430	12.907928	-13.793166	117.243554	13.442345	10.386577	-0.479549	-6.986893	59.263144	-1.010998	4.761677	135.086707	86.660894	-14.141196	7.751296
1.700000	5.644191	0.897841	92.050240	0.195405	1.028941	0.410289	0.291700	6.445834	-8.066208	18.703589	0.326439	26.304568	-5.899151	0.000000	5.525578	-5.922814	5.837700	23.881558	0.416812	35.194152	-6.718335	0.000000	-0.422660	0.903973	1.586003	-0.784921	1.202284	1.685128	-0.694388	2.197920	1.685128	-0.483058	2.197920	1.387752	-0.392482	1.843382	1.288627	-0.241508	1.400254	1.189502	-3.019016	10.225924	8.820870	0.000000	0.000000	18.430929	-23.869145	20.027321	12.981845	-13.197037	123.281578	12.124250	8.375196	-0.070249	-7.623801	61.320012	-1.246431	4.797468	134.760223	86.508541	-14.839539	8.379365
1.716667	5.534942	1.101542	91.572524	0.196786	1.028889	0.409215	0.098330	6.397680	-7.520166	18.889363	0.329682	26.448253	-6.070004	0.000000	5.055859	-5.872653	5.491624	23.712041	0.413853	35.395868	-6.796686	0.000000	-0.412723	0.839497	1.700741	-0.766467	1.116531	1.807037	-0.678062	2.041153	1.807037	-0.471701	2.041153	1.488148	-0.383254	1.711902	1.381852	-0.235830	1.300381	1.275555	-2.948036	9.496557	9.459009	0.000000	0.000000	17.954438	-22.899241	20.708252	12.821587	-12.599773	128.103313	10.872216	7.591628	0.463081	-8.089405	63.070645	-1.440526	4.793806	134.469321	86.411754	-15.253535	9.248398
1.733333	5.437975	1.287938	91.044221	0.198223	1.028816	0.408074	-0.074737	6.353638	-6.931343	19.073710	0.332899	26.646797	-6.148344	0.000000	4.576728	-5.827707	5.150736	23.520778	0.410515	35.607962	-6.936318	0.000000	-0.403429	0.774216	1.827072	-0.749208	1.029707	1.941264	-0.662793	1.882428	1.941264	-0.461079	1.882428	1.598688	-0.374624	1.578781	1.484496	-0.230519	1.199260	1.370304	-2.881652	8.758084	10.161625	0.000000	0.000000	17.463979	-21.997658	21.293830	12.674149	-12.049273	133.138442	9.559167	6.152090	0.907089	-8.632694	64.557303	-1.545763	4.661401	134.220284	86.383805	-15.132322	10.337846
1.750000	5.363608	1.448777	90.484946	0.199677	1.028696	0.406909	-0.213535	6.333612	-6.251492	19.257845	0.336113	26.868116	-6.238526	0.000000	4.118179	-5.803117	4.801390	23.335834	0.407287	35.849795	-7.081507	0.000000	-0.396196	0.711579	1.971067	-0.735776	0.946400	2.094259	-0.650911	1.730132	2.094259	-0.452813	1.730132	1.724684	-0.367908	1.451051	1.601492	-0.226387	1.102235	1.478300	-2.829990	8.049520	10.962484	0.000000	0.000000	16.938070	-21.191031	21.818298	12.339057	-11.545295	137.049770	8.324725	5.616720	1.306694	-9.032539	65.832062	-1.525698	4.370333	134.066233	86.412692	-14.466079	11.787585
1.766667	5.323104	1.579636	89.919415	0.201129	1.028498	0.405786	-0.312580	6.338674	-5.582631	19.441887	0.339325	27.128018	-6.226362	0.000000	3.706684	-5.808714	4.473000	23.182931	0.404618	36.116983	-7.258554	0.000000	-0.391412	0.652474	2.132397	-0.726892	0.867790	2.265672	-0.643051	1.586424	2.265672	-0.447345	1.586424	1.865848	-0.363465	1.330524	1.732573	-0.223653	1.010682	1.599298	-2.795818	7.380912	11.859754	0.000000	0.000000	16.384104	-20.589400	22.020910	12.061539	-11.064951	141.479494	7.075534	3.908982	1.707386	-9.623015	66.933291	-1.360502	3.911885	133.984323	86.500244	-13.296360	13.446912
1.783333	5.303936	1.674633	89.389632	0.202506	1.028179	0.404725	-0.364021	6.349656	-4.985138	19.632814	0.342657	27.431220	-6.109505	0.000000	3.368411	-5.823638	4.210737	23.083297	0.402880	36.395698	-7.485812	0.000000	-0.390611	0.597131	2.304326	-0.725404	0.794184	2.448347	-0.641735	1.451864	2.448347	-0.446430	1.451864	2.016286	-0.362722	1.217669	1.872265	-0.223195	0.924955	1.728245	-2.790097	6.754862	12.815972	0.000000	0.000000	15.815731	-20.183234	21.977184	11.683234	-10.660539	145.157448	5.964673	2.430572	2.014843	-10.158711	67.875627	-1.090628	3.311155	133.988973	86.631590	-11.835669	15.115969
1.800000	5.314200	1.726024	88.902234	0.203813	1.027715	0.403741	-0.355294	6.375212	-4.468886	19.844894	0.346359	27.763617	-5.902844	0.000000	3.121776	-5.858669	4.008856	23.055668	0.402397	36.681631	-7.761309	0.000000	-0.393093	0.547035	2.482129	-0.730014	0.727557	2.637262	-0.645813	1.330061	2.637262	-0.449266	1.330061	2.171863	-0.365026	1.115514	2.016730	-0.224613	0.847357	1.861597	-2.807826	6.188169	13.804856	0.000000	0.000000	15.264691	-20.005512	21.680950	11.230940	-10.343459	147.912944	5.041364	1.307348	2.211889	-10.600531	68.648336	-0.746392	2.541233	134.112953	86.782851	-10.140825	16.703776
1.816667	5.349180	1.741194	88.486552	0.205036	1.027103	0.402823	-0.301541	6.408033	-4.093734	20.070924	0.350304	28.127051	-5.585101	0.000000	2.970258	-5.906388	3.900372	23.113201	0.403401	36.965066	-8.099057	0.000000	-0.399956	0.501912	2.653547	-0.742758	0.667542	2.819394	-0.657087	1.220348	2.819394	-0.457109	1.220348	2.321854	-0.371399	1.023498	2.156007	-0.228535	0.777461	1.990160	-2.856844	5.677725	14.758234	0.000000	0.000000	14.781474	-20.069393	21.170191	10.732527	-10.114928	149.699031	4.330074	0.641788	2.276205	-10.935691	69.250911	-0.393131	1.616583	134.375593	86.946251	-8.347447	18.025754
1.833333	5.407040	1.725812	88.160307	0.206157	1.026363	0.401962	-0.209474	6.449989	-3.860927	20.314964	0.354563	28.510103	-5.192892	0.000000	2.909072	-5.966137	3.889124	23.252891	0.405840	37.237091	-8.493928	0.000000	-0.410545	0.461793	2.809407	-0.762422	0.614185	2.984995	-0.674484	1.122805	2.984995	-0.469211	1.122805	2.458232	-0.381232	0.941689	2.282644	-0.234585	0.715318	2.107056	-2.932479	5.223900	15.625081	0.000000	0.000000	14.387754	-20.368122	20.485377	10.245130	-9.959104	150.708050	3.810465	0.407489	2.223902	-11.189976	69.679595	-0.066933	0.599782	134.773309	87.075986	-6.724338	18.917981
